# Wavefront OBJ
# Created by fragMOTION
# http://www.fragmosoft.com

mtllib bullet.mtl
# 140 vertices
v -0.575307 -0.781453 2.9004
v -0.0076704 -1.22404 2.39225
v -0.00609875 -0.970391 2.9004
v -0.725715 -0.985742 2.39229
v 0.713326 -0.99479 2.39231
v 0.565469 -0.788724 2.9004
v 1.16181 -0.385465 2.39224
v 0.921149 -0.305634 2.90036
v 1.16653 0.37112 2.39241
v 0.924886 0.29405 2.9004
v 0.725715 0.98573 2.39233
v 0.575299 0.78166 2.90055
v 0.00766659 1.22404 2.39244
v 0.00609112 0.97061 2.90055
v -0.71333 0.99478 2.39233
v -0.565475 0.78874 2.9005
v -1.16181 0.38547 2.39238
v -0.921155 0.30586 2.90039
v -1.16653 -0.370917 2.39228
v -0.924891 -0.294232 2.90049
v -0.0076704 -1.22404 -1.86901
v -0.725715 -0.985742 -1.86894
v 0.713326 -0.99479 -1.86894
v 1.16181 -0.385676 -1.86901
v 1.16653 0.37092 -1.86884
v 0.725715 0.98593 -1.86887
v 0.00766659 1.22404 -1.86882
v -0.71333 0.99478 -1.86892
v -1.16181 0.38547 -1.86885
v -1.16653 -0.370917 -1.86898
v -0.00609684 -0.975707 -3.17514
v -0.57845 -0.785583 -3.17511
v 0.568614 -0.792861 -3.17509
v 0.926066 -0.307223 -3.17518
v 0.929801 0.29561 -3.17505
v 0.578446 0.78559 -3.17517
v 0.00609303 0.97552 -3.17514
v -0.568423 0.79285 -3.17517
v -0.92607 0.30742 -3.17507
v -0.929805 -0.295609 -3.17501
v -0.0074892 -1.19166 2.90926
v -0.706473 -0.95963 2.90926
v -1.13577 -0.361314 2.90935
v -1.13118 0.37557 2.90922
v -0.694402 0.96856 2.90937
v 0.00747967 1.1919 2.90942
v 0.706468 0.95986 2.90942
v 1.13576 0.36108 2.90926
v 1.13117 -0.375335 2.90921
v 0.694394 -0.968564 2.90926
v -0.00748539 -1.19168 3.17501
v -0.706471 -0.959651 3.17501
v -1.13576 -0.361346 3.17511
v -1.13118 0.37554 3.17499
v -0.6944 0.96854 3.17514
v 0.00748348 1.19188 3.17518
v 0.70647 0.95985 3.17518
v 1.13576 0.36106 3.17501
v 1.13117 -0.375342 3.17496
v 0.6944 -0.968583 3.17501
v -0.485906 -0.659903 -3.17511
v -0.0051068 -0.819614 -3.17514
v 0.47765 -0.666024 -3.17509
v 0.777922 -0.258072 -3.17518
v 0.781059 0.2483 -3.17505
v 0.485916 0.659889 -3.17517
v 0.00511282 0.81944 -3.17514
v -0.477504 0.665989 -3.17517
v -0.777926 0.258231 -3.17507
v -0.781063 -0.248298 -3.17501
v -0.575307 -0.781453 2.9004
v -0.0076704 -1.22404 2.39225
v -0.00609875 -0.970391 2.9004
v -0.725715 -0.985742 2.39229
v 0.713326 -0.99479 2.39231
v 0.565469 -0.788724 2.9004
v 1.16181 -0.385465 2.39224
v 0.921149 -0.305634 2.90036
v 1.16653 0.37112 2.39241
v 0.924886 0.29405 2.9004
v 0.725715 0.98573 2.39233
v 0.575299 0.78166 2.90055
v 0.00766659 1.22404 2.39244
v 0.00609112 0.97061 2.90055
v -0.71333 0.99478 2.39233
v -0.565475 0.78874 2.9005
v -1.16181 0.38547 2.39238
v -0.921155 0.30586 2.90039
v -1.16653 -0.370917 2.39228
v -0.924891 -0.294232 2.90049
v -0.0076704 -1.22404 -1.86901
v -0.725715 -0.985742 -1.86894
v 0.713326 -0.99479 -1.86894
v 1.16181 -0.385676 -1.86901
v 1.16653 0.37092 -1.86884
v 0.725715 0.98593 -1.86887
v 0.00766659 1.22404 -1.86882
v -0.71333 0.99478 -1.86892
v -1.16181 0.38547 -1.86885
v -1.16653 -0.370917 -1.86898
v -0.00609684 -0.975707 -3.17514
v -0.57845 -0.785583 -3.17511
v 0.568614 -0.792861 -3.17509
v 0.926066 -0.307223 -3.17518
v 0.929801 0.29561 -3.17505
v 0.578446 0.78559 -3.17517
v 0.00609303 0.97552 -3.17514
v -0.568423 0.79285 -3.17517
v -0.92607 0.30742 -3.17507
v -0.929805 -0.295609 -3.17501
v -0.0074892 -1.19166 2.90926
v -0.706473 -0.95963 2.90926
v -1.13577 -0.361314 2.90935
v -1.13118 0.37557 2.90922
v -0.694402 0.96856 2.90937
v 0.00747967 1.1919 2.90942
v 0.706468 0.95986 2.90942
v 1.13576 0.36108 2.90926
v 1.13117 -0.375335 2.90921
v 0.694394 -0.968564 2.90926
v -0.00748539 -1.19168 3.17501
v -0.706471 -0.959651 3.17501
v -1.13576 -0.361346 3.17511
v -1.13118 0.37554 3.17499
v -0.6944 0.96854 3.17514
v 0.00748348 1.19188 3.17518
v 0.70647 0.95985 3.17518
v 1.13576 0.36106 3.17501
v 1.13117 -0.375342 3.17496
v 0.6944 -0.968583 3.17501
v -0.485906 -0.659903 -3.17511
v -0.0051068 -0.819614 -3.17514
v 0.47765 -0.666024 -3.17509
v 0.777922 -0.258072 -3.17518
v 0.781059 0.2483 -3.17505
v 0.485916 0.659889 -3.17517
v 0.00511282 0.81944 -3.17514
v -0.477504 0.665989 -3.17517
v -0.777926 0.258231 -3.17507
v -0.781063 -0.248298 -3.17501
# 126 texture vertices
vt 0.22299 -0.327564
vt 0.179968 -0.327151
vt 0.222685 -0.365957
vt 0.268775 -0.324843
vt 0.654729 -0.367509
vt 0.648623 -0.32715
vt 0.605901 -0.365956
vt 0.639338 -0.643638
vt 0.173858 -0.367509
vt 0.270497 -0.363867
vt 0.189251 -0.643639
vt 0.238309 -0.636492
vt 0.605601 -0.327565
vt 0.559798 -0.324849
vt 0.558086 -0.36387
vt 0.544138 -0.630177
vt 0.510405 -0.361695
vt 0.512491 -0.321903
vt 0.464281 -0.31885
vt 0.462533 -0.359855
vt 0.456838 -0.62243
vt 0.414293 -0.358904
vt 0.414294 -0.31538
vt 0.364303 -0.318851
vt 0.366052 -0.359855
vt 0.371742 -0.622434
vt 0.318167 -0.361696
vt 0.31611 -0.321905
vt 0.284458 -0.630175
vt 0.590279 -0.636491
vt 0.564035 -0.724387
vt 0.22386 -0.743749
vt 0.264555 -0.724392
vt 0.499908 -0.625387
vt 0.487919 -0.703756
vt 0.414292 -0.621424
vt 0.414293 -0.698055
vt 0.328677 -0.625388
vt 0.340677 -0.703756
vt 0.303174 -0.711728
vt 0.604727 -0.743746
vt 0.525407 -0.711734
vt 0.450994 -0.699412
vt 0.377603 -0.699413
vt 0.764554 -0.384711
vt 0.810065 -0.369566
vt 0.83773 -0.282393
vt 0.809292 -0.243683
vt 0.718855 -0.370143
vt 0.838023 -0.330503
vt 0.763581 -0.229107
vt 0.718057 -0.244256
vt 0.690409 -0.331412
vt 0.690105 -0.283341
vt 0.732728 -0.537461
vt 0.769782 -0.549872
vt 0.724151 -0.549083
vt 0.76969 -0.564331
vt 0.806895 -0.538016
vt 0.815314 -0.549793
vt 0.830193 -0.506403
vt 0.830522 -0.467359
vt 0.844273 -0.462999
vt 0.843902 -0.510992
vt 0.807776 -0.435507
vt 0.770732 -0.423163
vt 0.770854 -0.408708
vt 0.816323 -0.423864
vt 0.733381 -0.434954
vt 0.710282 -0.466348
vt 0.696626 -0.461794
vt 0.725023 -0.423212
vt 0.710027 -0.505624
vt 0.696282 -0.509993
vt 0.401941 -0.695348
vt 0.384172 -0.689526
vt 0.401955 -0.690506
vt 0.387034 -0.685618
vt 0.373246 -0.67429
vt 0.377851 -0.672814
vt 0.419759 -0.689607
vt 0.416926 -0.685686
vt 0.426189 -0.673056
vt 0.430793 -0.674573
vt 0.430877 -0.655804
vt 0.426262 -0.657287
vt 0.417071 -0.644602
vt 0.41993 -0.640698
vt 0.402164 -0.634822
vt 0.402142 -0.639663
vt 0.387196 -0.644444
vt 0.384367 -0.64051
vt 0.373299 -0.655654
vt 0.377893 -0.657164
vt 0.816052 -0.548328
vt 0.770541 -0.563473
vt 0.843718 -0.461155
vt 0.84401 -0.509265
vt 0.815279 -0.422445
vt 0.724842 -0.548905
vt 0.769569 -0.407869
vt 0.724045 -0.423018
vt 0.696397 -0.510174
vt 0.696092 -0.462103
vt 0.639164 -0.268308
vt 0.591772 -0.26837
vt 0.639298 -0.285558
vt 0.543435 -0.268153
vt 0.543415 -0.285594
vt 0.495702 -0.268273
vt 0.448156 -0.268332
vt 0.448153 -0.285659
vt 0.400312 -0.268222
vt 0.352666 -0.268304
vt 0.352667 -0.285663
vt 0.304721 -0.268194
vt 0.256857 -0.268179
vt 0.25687 -0.285441
vt 0.209653 -0.268342
vt 0.161619 -0.268097
vt 0.161475 -0.285558
vt 0.209649 -0.285645
vt 0.591766 -0.285776
vt 0.495725 -0.285573
vt 0.400308 -0.285563
vt 0.304687 -0.285589
# 280 normals
vn -0.0237803 -0.03218 -0.999199
vn -0.530285 -0.720599 0.446694
vn -0.00612424 -0.973045 0.230534
vn -0.000255525 -0.0400092 -0.999199
vn -0.00566362 -0.894705 0.446622
vn -0.533161 -0.804158 0.26281
vn 0.56699 -0.790811 0.230524
vn 0.0232808 -0.0325369 -0.999199
vn 0.521286 -0.72718 0.44662
vn 0.923561 -0.306455 0.230478
vn 0.0379295 -0.0125881 -0.999201
vn 0.849208 -0.281815 0.446571
vn 0.927308 0.294885 0.230526
vn 0.0380774 0.0122836 -0.999199
vn 0.852634 0.271049 0.446709
vn 0.576842 0.783684 0.230417
vn 0.0236729 0.0323437 -0.999196
vn 0.53048 0.720589 0.446477
vn 0.00607174 0.973078 0.230398
vn 0.000292703 0.0400492 -0.999198
vn 0.00554884 0.894846 0.44634
vn -0.567039 0.790786 0.230486
vn -0.023206 0.0326129 -0.999199
vn -0.521435 0.727197 0.44642
vn -0.923557 0.30648 0.230463
vn -0.0378367 0.012571 -0.999205
vn -0.849215 0.281947 0.446475
vn -0.914496 -0.360387 0.183899
vn -0.0381278 -0.0121631 -0.999199
vn -0.852659 -0.271248 0.446538
vn 0.0395539 -0.995978 -0.0804008
vn -0.590973 -0.801205 -0.0939241
vn 0.580079 -0.809128 -0.0939175
vn 0.944914 -0.313556 -0.0939148
vn 0.94878 0.301654 -0.0939169
vn 0.590192 0.801776 -0.0939567
vn 0.0061403 0.995559 -0.093941
vn -0.580101 0.809111 -0.0939277
vn -0.944925 0.313536 -0.0938742
vn -0.96054 -0.256656 -0.107195
vn 1.74356e-005 -1.10588e-007 -1
vn -0.11198 -0.976188 -0.18579
vn -8.06138e-005 8.163e-005 -1
vn -0.664401 -0.723904 -0.185833
vn -7.43059e-006 -4.94743e-005 -1
vn 0.572456 -0.798363 -0.186846
vn 1.09913e-005 3.31284e-005 -1
vn 0.932409 -0.309346 -0.186866
vn 5.84061e-005 2.77445e-005 -1
vn 0.93619 0.297715 -0.186855
vn 6.32029e-005 -4.65244e-005 -1
vn 0.582374 0.791124 -0.186986
vn 1.05391e-007 1.53718e-005 -1
vn 0.0061136 0.982355 -0.186926
vn -4.96035e-005 -3.555e-005 -1
vn -0.572266 0.798481 -0.186919
vn -5.36746e-005 -0.000129131 -1
vn -0.932373 0.309466 -0.186843
vn -1.05749e-005 3.32466e-005 -1
vn -0.936173 -0.297766 -0.186856
vn -0.000255516 -0.0400081 -0.999199
vn -0.00637669 -0.99998 -7.51657e-005
vn -0.0237582 -0.0321721 -0.9992
vn -0.592744 -0.805391 -5.7593e-005
vn -0.0381134 -0.0121582 -0.999199
vn -0.952919 -0.303226 -6.54841e-007
vn -0.0378541 0.012582 -0.999204
vn -0.949067 0.315074 4.11959e-005
vn -0.0232233 0.0326369 -0.999197
vn -0.582669 0.81271 6.55436e-005
vn 0.000285434 0.0400601 -0.999197
vn 0.00622115 0.999981 6.57979e-005
vn 0.0236568 0.0323223 -0.999197
vn 0.592899 0.805277 2.5839e-005
vn 0.0380602 0.0122622 -0.9992
vn 0.952977 0.303044 1.55155e-005
vn 0.0379275 -0.0125875 -0.999201
vn 0.949096 -0.314988 -8.29695e-006
vn 0.0232797 -0.0325361 -0.999199
vn 0.582623 -0.812743 -5.97314e-005
vn -0.00637607 -0.99998 -7.63821e-005
vn -5.32899e-005 -5.20715e-005 1
vn -0.592744 -0.805391 -5.91824e-005
vn 0.000230758 8.83805e-005 1
vn -0.952918 -0.303229 -1.06456e-005
vn 0.000455956 0.000160014 1
vn -0.949069 0.315069 3.55649e-005
vn 9.29046e-005 1.94847e-005 1
vn -0.58267 0.812709 7.03598e-005
vn -6.48149e-005 -8.69581e-005 1
vn 0.00621831 0.999981 7.51653e-005
vn 2.14744e-005 -0.000100556 1
vn 0.592898 0.805277 4.20336e-005
vn 0.000118773 -0.000126991 1
vn 0.952977 0.303041 2.28065e-005
vn 0.0002987 -6.97595e-005 1
vn 0.949097 -0.314984 -2.01939e-005
vn 0.000130713 -9.45053e-005 1
vn 0.582626 -0.81274 -7.12618e-005
vn 4.76495e-005 -5.73673e-005 1
vn -0.000108645 8.00005e-005 -1
vn 0 0 0
vn 0 0 0
vn 0 0 0
vn 1.7267e-005 2.42934e-005 -1
vn 0 0 0
vn 0 0 0
vn -3.37402e-005 -2.41975e-005 -1
vn 0 0 0
vn 0 0 0
vn 0 0 0
vn -5.29115e-005 5.36544e-005 -1
vn 0 0 0
vn 0 0 0
vn 0 0 0
vn -3.15359e-006 9.91484e-006 -1
vn 0 0 0
vn 0 0 0
vn 0 0 0
vn 3.49127e-005 -8.25158e-005 -1
vn 0 0 0
vn 0 0 0
vn 0 0 0
vn 9.82931e-009 -6.17298e-011 -1
vn 0 0 0
vn 0 0 0
vn 0 0 0
vn 0 0 0
vn -2.55865e-005 -6.7133e-005 -1
vn 0 0 0
vn 0 0 0
vn 0 0 0
vn -5.23372e-005 -0.000157626 -1
vn 0 0 0
vn 0 0 0
vn 0 0 0
vn -5.68891e-005 1.78421e-005 -1
vn 0 0 0
vn 0 0 0
vn 0 0 0
vn 0.530285 0.720599 -0.446694
vn 0.0237803 0.03218 0.999199
vn 0.00612424 0.973045 -0.230534
vn 0.00566362 0.894705 -0.446622
vn 0.000255525 0.0400092 0.999199
vn 0.533161 0.804158 -0.26281
vn -0.56699 0.790811 -0.230524
vn -0.521286 0.72718 -0.44662
vn -0.0232808 0.0325369 0.999199
vn -0.923561 0.306455 -0.230478
vn -0.849208 0.281815 -0.446571
vn -0.0379295 0.0125881 0.999201
vn -0.927308 -0.294885 -0.230526
vn -0.852634 -0.271049 -0.446709
vn -0.0380774 -0.0122836 0.999199
vn -0.576842 -0.783684 -0.230417
vn -0.53048 -0.720589 -0.446477
vn -0.0236729 -0.0323437 0.999196
vn -0.00607174 -0.973078 -0.230398
vn -0.00554884 -0.894846 -0.44634
vn -0.000292703 -0.0400492 0.999198
vn 0.567039 -0.790786 -0.230486
vn 0.521435 -0.727197 -0.44642
vn 0.023206 -0.0326129 0.999199
vn 0.923557 -0.30648 -0.230463
vn 0.849215 -0.281947 -0.446475
vn 0.0378367 -0.012571 0.999205
vn 0.914496 0.360387 -0.183899
vn 0.852659 0.271248 -0.446538
vn 0.0381278 0.0121631 0.999199
vn -0.0395539 0.995978 0.0804008
vn 0.590973 0.801205 0.0939241
vn -0.580079 0.809128 0.0939175
vn -0.944914 0.313556 0.0939148
vn -0.94878 -0.301654 0.0939169
vn -0.590192 -0.801776 0.0939567
vn -0.0061403 -0.995559 0.093941
vn 0.580101 -0.809111 0.0939277
vn 0.944925 -0.313536 0.0938742
vn 0.96054 0.256656 0.107195
vn 0.11198 0.976188 0.18579
vn -1.74356e-005 1.10588e-007 1
vn 0.664401 0.723904 0.185833
vn 8.06138e-005 -8.163e-005 1
vn -0.572456 0.798363 0.186846
vn 7.43059e-006 4.94743e-005 1
vn -0.932409 0.309346 0.186866
vn -1.09913e-005 -3.31284e-005 1
vn -0.93619 -0.297715 0.186855
vn -5.84061e-005 -2.77445e-005 1
vn -0.582374 -0.791124 0.186986
vn -6.32029e-005 4.65244e-005 1
vn -0.0061136 -0.982355 0.186926
vn -1.05391e-007 -1.53718e-005 1
vn 0.572266 -0.798481 0.186919
vn 4.96035e-005 3.555e-005 1
vn 0.932373 -0.309466 0.186843
vn 5.36746e-005 0.000129131 1
vn 0.936173 0.297766 0.186856
vn 1.05749e-005 -3.32466e-005 1
vn 0.00637669 0.99998 7.51657e-005
vn 0.000255516 0.0400081 0.999199
vn 0.592744 0.805391 5.7593e-005
vn 0.0237582 0.0321721 0.9992
vn 0.952919 0.303226 6.54841e-007
vn 0.0381134 0.0121582 0.999199
vn 0.949067 -0.315074 -4.11959e-005
vn 0.0378541 -0.012582 0.999204
vn 0.582669 -0.81271 -6.55436e-005
vn 0.0232233 -0.0326369 0.999197
vn -0.00622115 -0.999981 -6.57979e-005
vn -0.000285434 -0.0400601 0.999197
vn -0.592899 -0.805277 -2.5839e-005
vn -0.0236568 -0.0323223 0.999197
vn -0.952977 -0.303044 -1.55155e-005
vn -0.0380602 -0.0122622 0.9992
vn -0.949096 0.314988 8.29695e-006
vn -0.0379275 0.0125875 0.999201
vn -0.582623 0.812743 5.97314e-005
vn -0.0232797 0.0325361 0.999199
vn 0.00637607 0.99998 7.63821e-005
vn 5.32899e-005 5.20715e-005 -1
vn 0.592744 0.805391 5.91824e-005
vn -0.000230758 -8.83805e-005 -1
vn 0.952918 0.303229 1.06456e-005
vn -0.000455956 -0.000160014 -1
vn 0.949069 -0.315069 -3.55649e-005
vn -9.29046e-005 -1.94847e-005 -1
vn 0.58267 -0.812709 -7.03598e-005
vn 6.48149e-005 8.69581e-005 -1
vn -0.00621831 -0.999981 -7.51653e-005
vn -2.14744e-005 0.000100556 -1
vn -0.592898 -0.805277 -4.20336e-005
vn -0.000118773 0.000126991 -1
vn -0.952977 -0.303041 -2.28065e-005
vn -0.0002987 6.97595e-005 -1
vn -0.949097 0.314984 2.01939e-005
vn -0.000130713 9.45053e-005 -1
vn -0.582626 0.81274 7.12618e-005
vn -4.76495e-005 5.73673e-005 -1
vn 0 0 0
vn 0 0 0
vn 0 0 0
vn 0.000108645 -8.00005e-005 1
vn 0 0 0
vn 0 0 0
vn 0 0 0
vn 0 0 0
vn -1.7267e-005 -2.42934e-005 1
vn 0 0 0
vn 0 0 0
vn 0 0 0
vn 3.37402e-005 2.41975e-005 1
vn 0 0 0
vn 0 0 0
vn 0 0 0
vn 5.29115e-005 -5.36544e-005 1
vn 0 0 0
vn 0 0 0
vn 0 0 0
vn 3.15359e-006 -9.91484e-006 1
vn 0 0 0
vn 0 0 0
vn 0 0 0
vn -3.49127e-005 8.25158e-005 1
vn 0 0 0
vn 0 0 0
vn -9.82931e-009 6.17298e-011 1
vn 0 0 0
vn 0 0 0
vn 0 0 0
vn 2.55865e-005 6.7133e-005 1
vn 0 0 0
vn 0 0 0
vn 0 0 0
vn 5.23372e-005 0.000157626 1
vn 0 0 0
vn 0 0 0
vn 0 0 0
vn 5.68891e-005 -1.78421e-005 1
usemtl Material
g bullet
s 1
f 1/1/2 4/3/6 3/2/5
f 1/1/2 20/4/30 4/3/6
f 2/5/3 5/7/7 3/6/5
f 2/5/3 21/8/31 5/7/7
f 3/2/5 4/3/6 2/9/3
f 4/3/6 20/4/30 19/10/28
f 4/3/6 21/11/31 2/9/3
f 4/3/6 22/12/32 21/11/31
f 5/7/7 6/13/9 3/6/5
f 5/7/7 8/14/12 6/13/9
f 5/7/7 24/16/34 7/15/10
f 7/15/10 8/14/12 5/7/7
f 7/15/10 9/17/13 8/14/12
f 7/15/10 24/16/34 9/17/13
f 9/17/13 10/18/15 8/14/12
f 9/17/13 12/19/18 10/18/15
f 9/17/13 26/21/36 11/20/16
f 11/20/16 12/19/18 9/17/13
f 11/20/16 13/22/19 12/19/18
f 11/20/16 26/21/36 13/22/19
f 13/22/19 14/23/21 12/19/18
f 13/22/19 16/24/24 14/23/21
f 13/22/19 28/26/38 15/25/22
f 15/25/22 16/24/24 13/22/19
f 15/25/22 17/27/25 16/24/24
f 15/25/22 28/26/38 17/27/25
f 17/27/25 18/28/27 16/24/24
f 17/27/25 20/4/30 18/28/27
f 17/27/25 30/29/40 19/10/28
f 19/10/28 20/4/30 17/27/25
f 19/10/28 22/12/32 4/3/6
f 19/10/28 30/29/40 22/12/32
f 21/8/31 23/30/33 5/7/7
f 21/8/31 33/31/46 23/30/33
f 22/12/32 31/32/42 21/11/31
f 22/12/32 32/33/44 31/32/42
f 23/30/33 24/16/34 5/7/7
f 23/30/33 33/31/46 24/16/34
f 24/16/34 25/34/35 9/17/13
f 24/16/34 35/35/50 25/34/35
f 25/34/35 26/21/36 9/17/13
f 25/34/35 35/35/50 26/21/36
f 26/21/36 27/36/37 13/22/19
f 26/21/36 37/37/54 27/36/37
f 27/36/37 28/26/38 13/22/19
f 27/36/37 37/37/54 28/26/38
f 28/26/38 29/38/39 17/27/25
f 28/26/38 39/39/58 29/38/39
f 29/38/39 30/29/40 17/27/25
f 29/38/39 39/39/58 30/29/40
f 30/29/40 32/33/44 22/12/32
f 30/29/40 40/40/60 32/33/44
f 31/41/42 33/31/46 21/8/31
f 33/31/46 34/42/48 24/16/34
f 34/42/48 35/35/50 24/16/34
f 35/35/50 36/43/52 26/21/36
f 36/43/52 37/37/54 26/21/36
f 37/37/54 38/44/56 28/26/38
f 38/44/56 39/39/58 28/26/38
f 39/39/58 40/40/60 30/29/40
f 51/45/82 54/47/88 52/46/84
f 51/45/82 55/48/90 54/47/88
f 51/45/82 60/49/100 55/48/90
f 52/46/84 54/47/88 53/50/86
f 55/48/90 60/49/100 56/51/92
f 56/51/92 59/53/98 57/52/94
f 56/51/92 60/49/100 59/53/98
f 57/52/94 59/53/98 58/54/96
f 71/55/142 112/57/204 73/56/145
f 73/56/145 112/57/204 111/58/202
f 73/56/145 120/60/220 76/59/149
f 76/59/149 120/60/220 78/61/152
f 78/61/152 118/63/216 80/62/155
f 78/61/152 119/64/218 118/63/216
f 78/61/152 120/60/220 119/64/218
f 80/62/155 118/63/216 82/65/158
f 82/65/158 116/67/212 84/66/161
f 82/65/158 117/68/214 116/67/212
f 82/65/158 118/63/216 117/68/214
f 84/66/161 116/67/212 86/69/164
f 86/69/164 114/71/208 88/70/167
f 86/69/164 115/72/210 114/71/208
f 86/69/164 116/67/212 115/72/210
f 88/70/167 114/71/208 90/73/170
f 90/73/170 112/57/204 71/55/142
f 90/73/170 113/74/206 112/57/204
f 90/73/170 114/71/208 113/74/206
f 101/75/182 132/77/249 102/76/184
f 102/76/184 132/77/249 131/78/244
f 102/76/184 140/80/280 110/79/200
f 103/81/186 132/77/249 101/75/182
f 103/81/186 133/82/253 132/77/249
f 103/81/186 134/83/257 133/82/253
f 104/84/188 134/83/257 103/81/186
f 105/85/190 134/83/257 104/84/188
f 105/85/190 135/86/261 134/83/257
f 105/85/190 136/87/265 135/86/261
f 106/88/192 136/87/265 105/85/190
f 107/89/194 136/87/265 106/88/192
f 107/89/194 137/90/268 136/87/265
f 107/89/194 138/91/272 137/90/268
f 108/92/196 138/91/272 107/89/194
f 109/93/198 138/91/272 108/92/196
f 109/93/198 139/94/276 138/91/272
f 109/93/198 140/80/280 139/94/276
f 110/79/200 140/80/280 109/93/198
f 111/58/202 120/60/220 73/56/145
f 122/95/224 124/97/228 121/96/222
f 123/98/226 124/97/228 122/95/224
f 124/97/228 125/99/230 121/96/222
f 125/99/230 130/100/240 121/96/222
f 126/101/232 130/100/240 125/99/230
f 127/102/234 129/103/238 126/101/232
f 128/104/236 129/103/238 127/102/234
f 129/103/238 130/100/240 126/101/232
f 131/78/244 140/80/280 102/76/184
s 2
f 41/105/62 51/107/81 42/106/64
f 42/106/64 53/109/85 43/108/66
f 43/108/66 53/109/85 44/110/68
f 44/110/68 55/112/89 45/111/70
f 45/111/70 55/112/89 46/113/72
f 46/113/72 57/115/93 47/114/74
f 47/114/74 57/115/93 48/116/76
f 48/116/76 59/118/97 49/117/78
f 49/117/78 59/118/97 50/119/80
f 50/119/80 51/121/81 41/120/62
f 50/119/80 60/122/99 51/121/81
f 51/107/81 52/123/83 42/106/64
f 52/123/83 53/109/85 42/106/64
f 53/109/85 54/124/87 44/110/68
f 54/124/87 55/112/89 44/110/68
f 55/112/89 56/125/91 46/113/72
f 56/125/91 57/115/93 46/113/72
f 57/115/93 58/126/95 48/116/76
f 58/126/95 59/118/97 48/116/76
f 59/118/97 60/122/99 50/119/80
f 61/78/104 132/77/248 62/77/107
f 62/77/106 132/77/247 63/82/111
f 63/82/110 133/82/252 64/83/115
f 64/83/114 134/83/256 65/86/119
f 65/86/118 135/86/260 66/87/123
f 66/87/122 136/87/264 67/90/128
f 67/90/127 138/91/271 68/91/132
f 68/91/131 139/94/275 69/94/136
f 69/94/135 140/80/279 70/80/140
f 70/80/139 131/78/243 61/78/103
f 70/80/138 140/80/278 131/78/242
f 72/9/143 74/3/146 73/2/144
f 72/9/143 91/11/171 74/3/146
f 73/2/144 74/3/146 71/1/141
f 73/6/144 75/7/147 72/5/143
f 73/6/144 76/13/148 75/7/147
f 74/3/146 90/4/169 71/1/141
f 74/3/146 92/12/172 89/10/168
f 75/7/147 78/14/151 77/15/150
f 75/7/147 91/8/171 72/5/143
f 75/7/147 93/30/173 91/8/171
f 75/7/147 94/16/174 93/30/173
f 76/13/148 78/14/151 75/7/147
f 77/15/150 94/16/174 75/7/147
f 78/14/151 79/17/153 77/15/150
f 78/14/151 80/18/154 79/17/153
f 79/17/153 82/19/157 81/20/156
f 79/17/153 94/16/174 77/15/150
f 79/17/153 95/34/175 94/16/174
f 79/17/153 96/21/176 95/34/175
f 80/18/154 82/19/157 79/17/153
f 81/20/156 96/21/176 79/17/153
f 82/19/157 83/22/159 81/20/156
f 82/19/157 84/23/160 83/22/159
f 83/22/159 86/24/163 85/25/162
f 83/22/159 96/21/176 81/20/156
f 83/22/159 97/36/177 96/21/176
f 83/22/159 98/26/178 97/36/177
f 84/23/160 86/24/163 83/22/159
f 85/25/162 98/26/178 83/22/159
f 86/24/163 87/27/165 85/25/162
f 86/24/163 88/28/166 87/27/165
f 87/27/165 90/4/169 89/10/168
f 87/27/165 98/26/178 85/25/162
f 87/27/165 99/38/179 98/26/178
f 87/27/165 100/29/180 99/38/179
f 88/28/166 90/4/169 87/27/165
f 89/10/168 90/4/169 74/3/146
f 89/10/168 100/29/180 87/27/165
f 91/11/171 92/12/172 74/3/146
f 91/11/171 101/32/181 92/12/172
f 91/8/171 103/31/185 101/41/181
f 92/12/172 100/29/180 89/10/168
f 92/12/172 102/33/183 100/29/180
f 93/30/173 103/31/185 91/8/171
f 94/16/174 103/31/185 93/30/173
f 94/16/174 104/42/187 103/31/185
f 94/16/174 105/35/189 104/42/187
f 95/34/175 105/35/189 94/16/174
f 96/21/176 105/35/189 95/34/175
f 96/21/176 106/43/191 105/35/189
f 96/21/176 107/37/193 106/43/191
f 97/36/177 107/37/193 96/21/176
f 98/26/178 107/37/193 97/36/177
f 98/26/178 108/44/195 107/37/193
f 98/26/178 109/39/197 108/44/195
f 99/38/179 109/39/197 98/26/178
f 100/29/180 109/39/197 99/38/179
f 100/29/180 110/40/199 109/39/197
f 101/32/181 102/33/183 92/12/172
f 102/33/183 110/40/199 100/29/180
f 111/120/201 121/121/221 120/119/219
f 112/106/203 121/107/221 111/105/201
f 112/106/203 122/123/223 121/107/221
f 112/106/203 123/109/225 122/123/223
f 113/108/205 123/109/225 112/106/203
f 114/110/207 123/109/225 113/108/205
f 114/110/207 124/124/227 123/109/225
f 114/110/207 125/112/229 124/124/227
f 115/111/209 125/112/229 114/110/207
f 116/113/211 125/112/229 115/111/209
f 116/113/211 126/125/231 125/112/229
f 116/113/211 127/115/233 126/125/231
f 117/114/213 127/115/233 116/113/211
f 118/116/215 127/115/233 117/114/213
f 118/116/215 128/126/235 127/115/233
f 118/116/215 129/118/237 128/126/235
f 119/117/217 129/118/237 118/116/215
f 120/119/219 129/118/237 119/117/217
f 120/119/219 130/122/239 129/118/237
f 121/121/221 130/122/239 120/119/219
f 131/78/241 132/77/246 61/78/102
f 132/77/245 133/82/251 63/82/109
f 133/82/250 134/83/255 64/83/113
f 134/83/254 135/86/259 65/86/117
f 135/86/258 136/87/263 66/87/121
f 136/87/262 137/90/267 67/90/126
f 137/90/266 138/91/270 67/90/125
f 138/91/269 139/94/274 68/91/130
f 139/94/273 140/80/277 69/94/134
s 3
f 1/55/1 42/57/63 20/73/29
f 3/56/4 42/57/63 1/55/1
f 3/56/4 50/60/79 41/58/61
f 6/59/8 50/60/79 3/56/4
f 8/61/11 50/60/79 6/59/8
f 10/62/14 48/63/75 8/61/11
f 12/65/17 48/63/75 10/62/14
f 14/66/20 46/67/71 12/65/17
f 16/69/23 46/67/71 14/66/20
f 18/70/26 44/71/67 16/69/23
f 20/73/29 44/71/67 18/70/26
f 31/75/41 62/77/105 33/81/45
f 32/76/43 62/77/105 31/75/41
f 32/76/43 70/80/137 61/78/101
f 33/81/45 64/83/112 34/84/47
f 34/84/47 64/83/112 35/85/49
f 35/85/49 66/87/120 36/88/51
f 36/88/51 66/87/120 37/89/53
f 37/89/53 68/91/129 38/92/55
f 38/92/55 68/91/129 39/93/57
f 39/93/57 70/80/137 40/79/59
f 40/79/59 70/80/137 32/76/43
f 41/58/61 42/57/63 3/56/4
f 42/57/63 43/74/65 20/73/29
f 43/74/65 44/71/67 20/73/29
f 44/71/67 45/72/69 16/69/23
f 45/72/69 46/67/71 16/69/23
f 46/67/71 47/68/73 12/65/17
f 47/68/73 48/63/75 12/65/17
f 48/63/75 49/64/77 8/61/11
f 49/64/77 50/60/79 8/61/11
f 61/78/101 62/77/105 32/76/43
f 62/77/105 63/82/108 33/81/45
f 63/82/108 64/83/112 33/81/45
f 64/83/112 65/86/116 35/85/49
f 65/86/116 66/87/120 35/85/49
f 66/87/120 67/90/124 37/89/53
f 67/90/124 68/91/129 37/89/53
f 68/91/129 69/94/133 39/93/57
f 69/94/133 70/80/137 39/93/57
