# Wavefront OBJ
# Created by fragMOTION
# http://www.fragmosoft.com

mtllib bullet.mtl
# 100 vertices
v 1.12629 0 -5.8393
v 0.911189 -0.662016 -5.8393
v 0.348044 -1.07117 -5.8393
v -0.348042 -1.07117 -5.8393
v -0.911187 -0.662016 -5.8393
v -1.12629 0 -5.8393
v -0.911187 0.66202 -5.8393
v -0.348042 1.07117 -5.8393
v 0.348044 1.07117 -5.8393
v 0.911189 0.66202 -5.8393
v 0.911189 -0.662016 5.39878
v 1.12629 0 5.39878
v 0.911189 0.66202 5.39878
v 0.348044 1.07117 5.39878
v -0.348042 1.07117 5.39878
v -0.911187 0.66202 5.39878
v -1.12629 0 5.39878
v -0.911187 -0.662016 5.39878
v -0.348042 -1.07117 5.39878
v 0.348044 -1.07117 5.39878
v 1.04349 -0.758136 5.40932
v 1.28982 0 5.40932
v 1.04349 0.75814 5.40932
v 0.398576 1.22669 5.40932
v -0.398576 1.22669 5.40932
v -1.04348 0.75814 5.40932
v -1.28982 0 5.40932
v -1.04348 -0.758136 5.40932
v -0.398576 -1.22669 5.40932
v 0.398576 -1.22669 5.40932
v 1.04349 -0.758136 5.8393
v 1.28982 0 5.8393
v 1.04349 0.75814 5.8393
v 0.398576 1.22669 5.8393
v -0.398576 1.22669 5.8393
v -1.04348 0.75814 5.8393
v -1.28982 0 5.8393
v -1.04348 -0.758136 5.8393
v -0.398576 -1.22669 5.8393
v 0.398576 -1.22669 5.8393
v 0.730774 0.530941 -5.8393
v 0.903285 1.97998e-007 -5.8393
v 0.730774 -0.530937 -5.8393
v 0.279131 -0.859076 -5.8393
v -0.279129 -0.859076 -5.8393
v -0.730772 -0.530937 -5.8393
v -0.903285 1.98e-007 -5.8393
v -0.730772 0.530941 -5.8393
v -0.279129 0.859079 -5.8393
v 0.279131 0.859079 -5.8393
v 1.12629 0 -5.8393
v 0.911189 -0.662016 -5.8393
v 0.348044 -1.07117 -5.8393
v -0.348042 -1.07117 -5.8393
v -0.911187 -0.662016 -5.8393
v -1.12629 0 -5.8393
v -0.911187 0.66202 -5.8393
v -0.348042 1.07117 -5.8393
v 0.348044 1.07117 -5.8393
v 0.911189 0.66202 -5.8393
v 0.911189 -0.662016 5.39878
v 1.12629 0 5.39878
v 0.911189 0.66202 5.39878
v 0.348044 1.07117 5.39878
v -0.348042 1.07117 5.39878
v -0.911187 0.66202 5.39878
v -1.12629 0 5.39878
v -0.911187 -0.662016 5.39878
v -0.348042 -1.07117 5.39878
v 0.348044 -1.07117 5.39878
v 1.04349 -0.758136 5.40932
v 1.28982 0 5.40932
v 1.04349 0.75814 5.40932
v 0.398576 1.22669 5.40932
v -0.398576 1.22669 5.40932
v -1.04348 0.75814 5.40932
v -1.28982 0 5.40932
v -1.04348 -0.758136 5.40932
v -0.398576 -1.22669 5.40932
v 0.398576 -1.22669 5.40932
v 1.04349 -0.758136 5.8393
v 1.28982 0 5.8393
v 1.04349 0.75814 5.8393
v 0.398576 1.22669 5.8393
v -0.398576 1.22669 5.8393
v -1.04348 0.75814 5.8393
v -1.28982 0 5.8393
v -1.04348 -0.758136 5.8393
v -0.398576 -1.22669 5.8393
v 0.398576 -1.22669 5.8393
v 0.730774 0.530941 -5.8393
v 0.903285 1.97998e-007 -5.8393
v 0.730774 -0.530937 -5.8393
v 0.279131 -0.859076 -5.8393
v -0.279129 -0.859076 -5.8393
v -0.730772 -0.530937 -5.8393
v -0.903285 1.98e-007 -5.8393
v -0.730772 0.530941 -5.8393
v -0.279129 0.859079 -5.8393
v 0.279131 0.859079 -5.8393
# 104 texture vertices
vt 0.247933 -0.359509
vt 0.244814 -0.39216
vt 0.817349 -0.40451
vt 0.818098 -0.368766
vt 0.818793 -0.333007
vt 0.241158 -0.426597
vt 0.238189 -0.463174
vt 0.815776 -0.476032
vt 0.816568 -0.440269
vt 0.238189 -0.131262
vt 0.241158 -0.167839
vt 0.815776 -0.118404
vt 0.244814 -0.202276
vt 0.817349 -0.189926
vt 0.816568 -0.154167
vt 0.247933 -0.234926
vt 0.249991 -0.266353
vt 0.818793 -0.261429
vt 0.818098 -0.22567
vt 0.250745 -0.297218
vt 0.249991 -0.328083
vt 0.819413 -0.297218
vt 0.678114 -0.0337588
vt 0.719279 -0.0337588
vt 0.678114 -0.0559627
vt 0.636949 -0.0337588
vt 0.636949 -0.0559627
vt 0.595784 -0.0559627
vt 0.595784 -0.0337588
vt 0.554618 -0.0337588
vt 0.554618 -0.0559627
vt 0.513454 -0.0559627
vt 0.513454 -0.0337588
vt 0.472288 -0.0337588
vt 0.472288 -0.0559627
vt 0.431123 -0.0559627
vt 0.431123 -0.0337588
vt 0.389958 -0.0337588
vt 0.389958 -0.0559627
vt 0.348793 -0.0559627
vt 0.348793 -0.0337588
vt 0.760445 -0.0337588
vt 0.760445 -0.0559627
vt 0.719279 -0.0559627
vt 0.260803 -0.299502
vt 0.274092 -0.258603
vt 0.27458 -0.299502
vt 0.274091 -0.3404
vt 0.308884 -0.365678
vt 0.313141 -0.352575
vt 0.351886 -0.365678
vt 0.386677 -0.340401
vt 0.375531 -0.332303
vt 0.399966 -0.299502
vt 0.386676 -0.258602
vt 0.37553 -0.2667
vt 0.351887 -0.233326
vt 0.308882 -0.233326
vt 0.313139 -0.246429
vt 0.324514 -0.791513
vt 0.317668 -0.796487
vt 0.304944 -0.757327
vt 0.353595 -0.812641
vt 0.350979 -0.82069
vt 0.313407 -0.757327
vt 0.324514 -0.723142
vt 0.317668 -0.718167
vt 0.350979 -0.693965
vt 0.353595 -0.702014
vt 0.389539 -0.702014
vt 0.392154 -0.693965
vt 0.425466 -0.718168
vt 0.418618 -0.723142
vt 0.429727 -0.757327
vt 0.43819 -0.757327
vt 0.425466 -0.796487
vt 0.418619 -0.791513
vt 0.389539 -0.812641
vt 0.392154 -0.82069
vt 0.595531 -0.69235
vt 0.582811 -0.7315
vt 0.475038 -0.7315
vt 0.582811 -0.6532
vt 0.462318 -0.69235
vt 0.549506 -0.629003
vt 0.475038 -0.6532
vt 0.508342 -0.629003
vt 0.508342 -0.755696
vt 0.549506 -0.755696
vt 0.285238 -0.266701
vt 0.285237 -0.332302
vt 0.347629 -0.352576
vt 0.386188 -0.299502
vt 0.34763 -0.246429
vt 0.422775 -0.797031
vt 0.435133 -0.758995
vt 0.318069 -0.797031
vt 0.422775 -0.720959
vt 0.305711 -0.758995
vt 0.390418 -0.697451
vt 0.318069 -0.720959
vt 0.350425 -0.697451
vt 0.350425 -0.820538
vt 0.390418 -0.820538
# 180 normals
vn 0 0 -1
vn 1 -9.08744e-007 0
vn 0 0 -1
vn 0.809018 -0.587784 0
vn 0 0 -1
vn 0.309018 -0.951056 0
vn 0 0 -1
vn -0.309018 -0.951056 0
vn 0 0 -1
vn -0.809017 -0.587785 0
vn 0 0 -1
vn -1 -9.08745e-007 0
vn 0 0 -1
vn -0.809018 0.587784 0
vn 0 0 -1
vn -0.309018 0.951056 0
vn 0 0 -1
vn 0.309018 0.951056 0
vn 0 0 -1
vn 0.809018 0.587783 0
vn 0.0520356 -0.0378062 -0.997929
vn 0.809018 -0.587784 0
vn 0.0643196 -6.42753e-008 -0.997929
vn 1 -9.08744e-007 0
vn 0.0520357 0.0378064 -0.997929
vn 0.809018 0.587783 0
vn 0.0198766 0.0611739 -0.997929
vn 0.309018 0.951056 0
vn -0.0198764 0.0611736 -0.997929
vn -0.309018 0.951056 0
vn -0.0520373 0.0378071 -0.997929
vn -0.809018 0.587785 0
vn -0.0643207 -5.40285e-008 -0.997929
vn -1 -9.08745e-007 0
vn -0.0520373 -0.0378071 -0.997929
vn -0.809017 -0.587785 0
vn -0.0198763 -0.0611727 -0.997929
vn -0.309018 -0.951056 0
vn 0.0198764 -0.0611729 -0.997929
vn 0.309018 -0.951056 0
vn 0.0520351 -0.0378058 -0.997929
vn 0.809017 -0.587785 0
vn 0.0643192 -5.496e-008 -0.997929
vn 1 -7.83399e-007 0
vn 0.052035 0.0378058 -0.997929
vn 0.809016 0.587786 0
vn 0.0198761 0.0611734 -0.997929
vn 0.309013 0.951058 0
vn -0.0198764 0.0611738 -0.997929
vn -0.309017 0.951057 0
vn -0.0520368 0.0378071 -0.997929
vn -0.809015 0.587788 0
vn -0.0643196 -5.58916e-008 -0.997929
vn -1 -7.83402e-007 0
vn -0.0520367 -0.0378069 -0.997929
vn -0.809016 -0.587787 0
vn -0.0198763 -0.0611726 -0.997929
vn -0.309019 -0.951056 0
vn 0.019876 -0.0611725 -0.997929
vn 0.309015 -0.951057 0
vn 0 0 1
vn 0.809017 -0.587785 0
vn 0 0 1
vn 1 -7.83399e-007 0
vn 0 0 1
vn 0.809016 0.587786 0
vn 0 0 1
vn 0.309013 0.951058 0
vn 0 0 1
vn -0.309017 0.951057 0
vn 0 0 1
vn -0.809015 0.587788 0
vn 0 0 1
vn -1 -7.83402e-007 0
vn 0 0 1
vn -0.809016 -0.587787 0
vn 0 0 1
vn -0.309019 -0.951056 0
vn 0 0 1
vn 0.309015 -0.951057 0
vn 0 0 -1
vn 0 0 -1
vn 0 0 -1
vn 0 0 -1
vn 0 0 -1
vn 0 0 -1
vn 0 0 -1
vn 0 0 -1
vn 0 0 -1
vn 0 0 -1
vn 0 0 1
vn -1 9.08744e-007 0
vn 0 0 1
vn -0.809018 0.587784 0
vn 0 0 1
vn -0.309018 0.951056 0
vn 0 0 1
vn 0.309018 0.951056 0
vn 0 0 1
vn 0.809017 0.587785 0
vn 0 0 1
vn 1 9.08745e-007 0
vn 0 0 1
vn 0.809018 -0.587784 0
vn 0 0 1
vn 0.309018 -0.951056 0
vn 0 0 1
vn -0.309018 -0.951056 0
vn 0 0 1
vn -0.809018 -0.587783 0
vn -0.0520356 0.0378062 0.997929
vn -0.809018 0.587784 0
vn -0.0643196 6.42753e-008 0.997929
vn -1 9.08744e-007 0
vn -0.0520357 -0.0378064 0.997929
vn -0.809018 -0.587783 0
vn -0.0198766 -0.0611739 0.997929
vn -0.309018 -0.951056 0
vn 0.0198764 -0.0611736 0.997929
vn 0.309018 -0.951056 0
vn 0.0520373 -0.0378071 0.997929
vn 0.809018 -0.587785 0
vn 0.0643207 5.40285e-008 0.997929
vn 1 9.08745e-007 0
vn 0.0520373 0.0378071 0.997929
vn 0.809017 0.587785 0
vn 0.0198763 0.0611727 0.997929
vn 0.309018 0.951056 0
vn -0.0198764 0.0611729 0.997929
vn -0.309018 0.951056 0
vn -0.0520351 0.0378058 0.997929
vn -0.809017 0.587785 0
vn -0.0643192 5.496e-008 0.997929
vn -1 7.83399e-007 0
vn -0.052035 -0.0378058 0.997929
vn -0.809016 -0.587786 0
vn -0.0198761 -0.0611734 0.997929
vn -0.309013 -0.951058 0
vn 0.0198764 -0.0611738 0.997929
vn 0.309017 -0.951057 0
vn 0.0520368 -0.0378071 0.997929
vn 0.809015 -0.587788 0
vn 0.0643196 5.58916e-008 0.997929
vn 1 7.83402e-007 0
vn 0.0520367 0.0378069 0.997929
vn 0.809016 0.587787 0
vn 0.0198763 0.0611726 0.997929
vn 0.309019 0.951056 0
vn -0.019876 0.0611725 0.997929
vn -0.309015 0.951057 0
vn 0 0 -1
vn -0.809017 0.587785 0
vn 0 0 -1
vn -1 7.83399e-007 0
vn 0 0 -1
vn -0.809016 -0.587786 0
vn 0 0 -1
vn -0.309013 -0.951058 0
vn 0 0 -1
vn 0.309017 -0.951057 0
vn 0 0 -1
vn 0.809015 -0.587788 0
vn 0 0 -1
vn 1 7.83402e-007 0
vn 0 0 -1
vn 0.809016 0.587787 0
vn 0 0 -1
vn 0.309019 0.951056 0
vn 0 0 -1
vn -0.309015 0.951057 0
vn 0 0 1
vn 0 0 1
vn 0 0 1
vn 0 0 1
vn 0 0 1
vn 0 0 1
vn 0 0 1
vn 0 0 1
vn 0 0 1
vn 0 0 1
usemtl Material
g bullet
s off
f 52/2/94 61/3/112 51/1/92
f 61/3/112 62/4/114 51/1/92
f 62/4/114 63/5/116 51/1/92
f 53/6/96 61/3/112 52/2/94
f 54/7/98 69/8/128 53/6/96
f 69/8/128 70/9/130 53/6/96
f 55/11/100 69/12/128 54/10/98
f 56/13/102 67/14/124 55/11/100
f 67/14/124 68/15/126 55/11/100
f 68/15/126 69/12/128 55/11/100
f 57/16/104 67/14/124 56/13/102
f 58/17/106 65/18/120 57/16/104
f 65/18/120 66/19/122 57/16/104
f 66/19/122 67/14/124 57/16/104
f 59/20/108 65/18/120 58/17/106
f 60/21/110 63/5/116 59/20/108
f 63/5/116 64/22/118 59/20/108
f 64/22/118 65/18/120 59/20/108
f 51/1/92 63/5/116 60/21/110
f 53/6/96 70/9/130 61/3/112
f 80/24/150 81/25/152 71/23/132
f 71/23/132 81/25/152 72/26/134
f 81/25/152 82/27/154 72/26/134
f 82/27/154 83/28/156 72/26/134
f 72/26/134 83/28/156 73/29/136
f 73/29/136 83/28/156 74/30/138
f 83/28/156 84/31/158 74/30/138
f 84/31/158 85/32/160 74/30/138
f 74/30/138 85/32/160 75/33/140
f 75/33/140 85/32/160 76/34/142
f 85/32/160 86/35/162 76/34/142
f 86/35/162 87/36/164 76/34/142
f 76/34/142 87/36/164 77/37/144
f 77/37/144 87/36/164 78/38/146
f 87/36/164 88/39/166 78/38/146
f 88/39/166 89/40/168 78/38/146
f 78/38/146 89/40/168 79/41/148
f 79/42/148 89/43/168 80/24/150
f 89/43/168 90/44/170 80/24/150
f 80/24/150 90/44/170 81/25/152
f 60/46/109 92/47/172 51/45/91
f 51/45/91 92/47/172 52/48/93
f 52/48/93 94/50/174 53/49/95
f 53/49/95 94/50/174 54/51/97
f 54/51/97 96/53/176 55/52/99
f 55/52/99 96/53/176 56/54/101
f 56/54/101 98/56/178 57/55/103
f 57/55/103 98/56/178 58/57/105
f 58/57/105 100/59/180 59/58/107
f 59/58/107 100/59/180 60/46/109
f 71/61/131 72/62/133 61/60/111
f 70/63/129 80/64/149 61/60/111
f 61/60/111 72/62/133 62/65/113
f 62/65/113 72/62/133 63/66/115
f 72/62/133 73/67/135 63/66/115
f 73/67/135 74/68/137 63/66/115
f 63/66/115 74/68/137 64/69/117
f 64/69/117 74/68/137 65/70/119
f 74/68/137 75/71/139 65/70/119
f 75/71/139 76/72/141 65/70/119
f 65/70/119 76/72/141 66/73/121
f 66/73/121 76/72/141 67/74/123
f 76/72/141 77/75/143 67/74/123
f 77/75/143 78/76/145 67/74/123
f 67/74/123 78/76/145 68/77/125
f 68/77/125 78/76/145 69/78/127
f 78/76/145 79/79/147 69/78/127
f 79/79/147 80/64/149 69/78/127
f 69/78/127 80/64/149 70/63/129
f 61/60/111 80/64/149 71/61/131
f 81/95/151 88/97/165 82/96/153
f 82/96/153 87/99/163 83/98/155
f 83/98/155 86/101/161 84/100/157
f 84/100/157 86/101/161 85/102/159
f 83/98/155 87/99/163 86/101/161
f 82/96/153 88/97/165 87/99/163
f 81/95/151 89/103/167 88/97/165
f 81/95/151 90/104/169 89/103/167
f 92/47/172 60/46/109 91/90/171
f 60/46/109 100/59/180 91/90/171
f 93/91/173 52/48/93 92/47/172
f 94/50/174 52/48/93 93/91/173
f 95/92/175 54/51/97 94/50/174
f 96/53/176 54/51/97 95/92/175
f 97/93/177 56/54/101 96/53/176
f 98/56/178 56/54/101 97/93/177
f 99/94/179 58/57/105 98/56/178
f 100/59/180 58/57/105 99/94/179
s 1
f 1/1/2 11/3/22 2/2/4
f 1/1/2 12/4/24 11/3/22
f 1/1/2 13/5/26 12/4/24
f 2/2/4 11/3/22 3/6/6
f 3/6/6 19/8/38 4/7/8
f 3/6/6 20/9/40 19/8/38
f 4/10/8 19/12/38 5/11/10
f 5/11/10 17/14/34 6/13/12
f 5/11/10 18/15/36 17/14/34
f 5/11/10 19/12/38 18/15/36
f 6/13/12 17/14/34 7/16/14
f 7/16/14 15/18/30 8/17/16
f 7/16/14 16/19/32 15/18/30
f 7/16/14 17/14/34 16/19/32
f 8/17/16 15/18/30 9/20/18
f 9/20/18 13/5/26 10/21/20
f 9/20/18 14/22/28 13/5/26
f 9/20/18 15/18/30 14/22/28
f 10/21/20 13/5/26 1/1/2
f 11/3/22 20/9/40 3/6/6
f 21/23/42 31/25/62 30/24/60
f 22/26/44 31/25/62 21/23/42
f 22/26/44 32/27/64 31/25/62
f 22/26/44 33/28/66 32/27/64
f 23/29/46 33/28/66 22/26/44
f 24/30/48 33/28/66 23/29/46
f 24/30/48 34/31/68 33/28/66
f 24/30/48 35/32/70 34/31/68
f 25/33/50 35/32/70 24/30/48
f 26/34/52 35/32/70 25/33/50
f 26/34/52 36/35/72 35/32/70
f 26/34/52 37/36/74 36/35/72
f 27/37/54 37/36/74 26/34/52
f 28/38/56 37/36/74 27/37/54
f 28/38/56 38/39/76 37/36/74
f 28/38/56 39/40/78 38/39/76
f 29/41/58 39/40/78 28/38/56
f 30/24/60 39/43/78 29/42/58
f 30/24/60 40/44/80 39/43/78
f 31/25/62 40/44/80 30/24/60
s 2
f 1/45/1 42/47/82 10/46/19
f 2/48/3 42/47/82 1/45/1
f 3/49/5 44/50/84 2/48/3
f 4/51/7 44/50/84 3/49/5
f 5/52/9 46/53/86 4/51/7
f 6/54/11 46/53/86 5/52/9
f 7/55/13 48/56/88 6/54/11
f 8/57/15 48/56/88 7/55/13
f 9/58/17 50/59/90 8/57/15
f 10/46/19 50/59/90 9/58/17
f 11/60/21 22/62/43 21/61/41
f 11/60/21 30/64/59 20/63/39
f 12/65/23 22/62/43 11/60/21
f 13/66/25 22/62/43 12/65/23
f 13/66/25 23/67/45 22/62/43
f 13/66/25 24/68/47 23/67/45
f 14/69/27 24/68/47 13/66/25
f 15/70/29 24/68/47 14/69/27
f 15/70/29 25/71/49 24/68/47
f 15/70/29 26/72/51 25/71/49
f 16/73/31 26/72/51 15/70/29
f 17/74/33 26/72/51 16/73/31
f 17/74/33 27/75/53 26/72/51
f 17/74/33 28/76/55 27/75/53
f 18/77/35 28/76/55 17/74/33
f 19/78/37 28/76/55 18/77/35
f 19/78/37 29/79/57 28/76/55
f 19/78/37 30/64/59 29/79/57
f 20/63/39 30/64/59 19/78/37
f 21/61/41 30/64/59 11/60/21
f 32/80/63 38/82/75 31/81/61
f 33/83/65 37/84/73 32/80/63
f 34/85/67 36/86/71 33/83/65
f 35/87/69 36/86/71 34/85/67
f 36/86/71 37/84/73 33/83/65
f 37/84/73 38/82/75 32/80/63
f 38/82/75 39/88/77 31/81/61
f 39/88/77 40/89/79 31/81/61
f 41/90/81 10/46/19 42/47/82
f 41/90/81 50/59/90 10/46/19
f 42/47/82 2/48/3 43/91/83
f 43/91/83 2/48/3 44/50/84
f 44/50/84 4/51/7 45/92/85
f 45/92/85 4/51/7 46/53/86
f 46/53/86 6/54/11 47/93/87
f 47/93/87 6/54/11 48/56/88
f 48/56/88 8/57/15 49/94/89
f 49/94/89 8/57/15 50/59/90
